# xmcd CD database file
#
# Track frame offsets:
#	150
#	14719
#	28888
#	42426
#	54828
#	71159
#	85442
#	101373
#	115386
#	130556
#	144808
#	158891
#
# Disc length: 2292 seconds
#
# Revision: 0
# Processed by: cddbd v1.5.2PL0 Copyright (c) Steve Scherf et al.
# Submitted via: CDex 1.70beta2
#
DISCID=a008f20c
DTITLE=SANDRA CLÉIA and LEONARDA - SANDRA CLÉIA and LEONARDA
DYEAR=2007
DGENRE=Country
TTITLE0=JÁ CHOREI POR AMOR
TTITLE1=TÁ BOMBANDO
TTITLE2=OITO SEGUNDOS
TTITLE3=MALA AMARELA
TTITLE4=É AMOR
TTITLE5=BATENDO O PÉ
TTITLE6=VENENO DE SERPENTE
TTITLE7=TOCA AQUELA
TTITLE8=FRANGUINHO NA PANELA
TTITLE9=LEILÃO
TTITLE10=LATINHA NA MÃO
TTITLE11=EU VOU EMBORA
EXTD=YEAR: 2007
EXTT0=
EXTT1=
EXTT2=
EXTT3=
EXTT4=
EXTT5=
EXTT6=
EXTT7=
EXTT8=
EXTT9=
EXTT10=
EXTT11=
PLAYORDER=
